<svg width="1000" height="1000" viewBox="0 0 1000 1000" fill="none" xmlns="http://www.w3.org/2000/svg">
<rect width="1000" height="1000" rx="80" fill="black"></rect>
<path d="M300 700C300 644.772 344.772 600 400 600H500V700C500 755.228 455.228 800 400 800C344.772 800 300 755.228 300 700Z" fill="#24CB71"></path>
<path d="M500 200V400H600C655.228 400 700 355.228 700 300C700 244.772 655.228 200 600 200H500Z" fill="#FF7237"></path>
<path d="M599.167 600C654.395 600 699.167 555.228 699.167 500C699.167 444.772 654.395 400 599.167 400C543.939 400 499.167 444.772 499.167 500C499.167 555.228 543.939 600 599.167 600Z" fill="#00B6FF"></path>
<path d="M300 300C300 355.228 344.772 400 400 400H500V200H400C344.772 200 300 244.772 300 300Z" fill="#FF3737"></path>
<path d="M300 500C300 555.228 344.772 600 400 600H500V400H400C344.772 400 300 444.772 300 500Z" fill="#874FFF"></path>
</svg>